# xmcd
# 
# Track frame offsets:
#     182
#     17485
#     32490
#     53522
#     70380
#     83082
#     99667
#     113527
#     129557
#     151202
#     163030
# 
# Disc length: 2373
# 
# Revision: 5
# Processed by: cddbd v1.5.2PL0 Copyright (c) Steve Scherf et al.
# Submitted via: BonkEnc v1.0.8
# 
DISCID=7b09430b
DTITLE=The Rolling Stones - Through The Past Darkly (Big Hits Vol. 2)
DYEAR=1969
DGENRE=rock
TTITLE0=Paint It, Black
TTITLE1=Ruby Tuesday
TTITLE2=She's A Rainbow
TTITLE3=Jumpin' Jack Flash
TTITLE4=Mother's Little Helper
TTITLE5=Let's Spend The Night Together
TTITLE6=Honky Tonk Women
TTITLE7=Dandelion
TTITLE8=2000 Light Years From Home
TTITLE9=Have You Seen Your Mother Baby, Standing In The Shadow?
TTITLE10=Street Fighting Man
EXTD=YEAR: 1986 (1966-1969]\nReleased: 09/1969\nMick Jagger - guitar, harmonica, keyboards, vocals\nCharlie Watts - drums\nBill Wyman - bass, guitar (bass), synthesizer, keyboards, vocals\nBrian Jones - guitar, keyboards, vocals\nKeith Richards - guitar, 
EXTD=keyboards, vocals\n\nNicky Hopkins - piano, keyboards\nJohn Paul Jones - strings\n\nProducer:  Andrew Loog Oldham, Jimmy Miller, Rolling Stones
EXTT0=Keith Richards - Mick Jagger - 1966
EXTT1=Keith Richards - Mick Jagger - 1967
EXTT2=Keith Richards - Mick Jagger - 1967
EXTT3=Keith Richards - Mick Jagger - 1968
EXTT4=Keith Richards - Mick Jagger - 1966
EXTT5=Keith Richards - Mick Jagger - 1967
EXTT6=Keith Richards - Mick Jagger - 1969
EXTT7=Keith Richards - Mick Jagger - 1967
EXTT8=Keith Richards - Mick Jagger - 1967
EXTT9=Keith Richards - Mick Jagger - 1966
EXTT10=Keith Richards - Mick Jagger - 1968
PLAYORDER=
